<svg xmlns="http://www.w3.org/2000/svg" xmlns:xlink="http://www.w3.org/1999/xlink" contentStyleType="text/css" data-diagram-type="ACTIVITY" height="3029px" preserveAspectRatio="none" style="width:642px;height:3029px;background:#FFFFFF;" version="1.1" viewBox="0 0 642 3029" width="642px" zoomAndPan="magnify"><title>Engine Main Loop - Flowchart (motor actual)</title><defs/><g><g class="title" data-source-line="1"><text fill="#000000" font-family="sans-serif" font-size="14" font-weight="bold" lengthAdjust="spacing" textLength="296.3311" x="171.4063" y="34.5332">Engine Main Loop - Flowchart (motor actual)</text></g><ellipse cx="173.5635" cy="58.6094" fill="#4CAF50" rx="10" ry="10" style="stroke:#222222;stroke-width:1;"/><rect fill="#FFFFFF" height="50.1875" rx="12.5" ry="12.5" style="stroke:#444444;stroke-width:0.5;" width="150.7109" x="98.208" y="88.6094"/><text fill="#000000" font-family="sans-serif" font-size="12" lengthAdjust="spacing" textLength="113.4023" x="108.208" y="111.0664">Parse Engine::Config</text><text fill="#000000" font-family="sans-serif" font-size="12" lengthAdjust="spacing" textLength="130.7109" x="108.208" y="126.1602">(or LoadConfigFromFile)</text><rect fill="#FFFFFF" height="50.1875" rx="12.5" ry="12.5" style="stroke:#444444;stroke-width:0.5;" width="132.3945" x="107.3662" y="158.7969"/><text fill="#000000" font-family="sans-serif" font-size="12" lengthAdjust="spacing" textLength="92.0566" x="117.3662" y="181.2539">CreateSingletons</text><text fill="#000000" font-family="sans-serif" font-size="12" lengthAdjust="spacing" textLength="112.3945" x="117.3662" y="196.3477">(Engine + managers)</text><rect fill="#FFFFFF" height="35.0938" rx="12.5" ry="12.5" style="stroke:#444444;stroke-width:0.5;" width="282.4531" x="32.3369" y="228.9844"/><text fill="#000000" font-family="sans-serif" font-size="12" lengthAdjust="spacing" textLength="262.4531" x="42.3369" y="251.4414">SDL_Init + IMG_Init + TTF_Init + Mix_OpenAudio</text><rect fill="#FFFFFF" height="35.0938" rx="12.5" ry="12.5" style="stroke:#444444;stroke-width:0.5;" width="149.375" x="98.876" y="284.0781"/><text fill="#000000" font-family="sans-serif" font-size="12" lengthAdjust="spacing" textLength="129.375" x="108.876" y="306.5352">Window.Init(cfg.window)</text><rect fill="#FFFFFF" height="35.0938" rx="12.5" ry="12.5" style="stroke:#444444;stroke-width:0.5;" width="151.3906" x="97.8682" y="339.1719"/><text fill="#000000" font-family="sans-serif" font-size="12" lengthAdjust="spacing" textLength="131.3906" x="107.8682" y="361.6289">Render.Init(cfg.renderer)</text><rect fill="#FFFFFF" height="35.0938" rx="12.5" ry="12.5" style="stroke:#444444;stroke-width:0.5;" width="130.6895" x="108.2188" y="394.2656"/><text fill="#000000" font-family="sans-serif" font-size="12" lengthAdjust="spacing" textLength="110.6895" x="118.2188" y="416.7227">Time.Init(cfg.fixedDt)</text><rect fill="#FFFFFF" height="35.0938" rx="12.5" ry="12.5" style="stroke:#444444;stroke-width:0.5;" width="125.3867" x="110.8701" y="449.3594"/><text fill="#000000" font-family="sans-serif" font-size="12" lengthAdjust="spacing" textLength="105.3867" x="120.8701" y="471.8164">Random.Init(seed?)</text><rect fill="#FFFFFF" height="35.0938" rx="12.5" ry="12.5" style="stroke:#444444;stroke-width:0.5;" width="119.3867" x="113.8701" y="504.4531"/><text fill="#000000" font-family="sans-serif" font-size="12" lengthAdjust="spacing" textLength="99.3867" x="123.8701" y="526.9102">Input.Init(cfg.input)</text><rect fill="#FFFFFF" height="35.0938" rx="12.5" ry="12.5" style="stroke:#444444;stroke-width:0.5;" width="189.4063" x="78.8604" y="559.5469"/><text fill="#000000" font-family="sans-serif" font-size="12" lengthAdjust="spacing" textLength="169.4063" x="88.8604" y="582.0039">Assets.Init(cfg.assetsBasePath)</text><rect fill="#FFFFFF" height="35.0938" rx="12.5" ry="12.5" style="stroke:#444444;stroke-width:0.5;" width="134.0703" x="106.5283" y="614.6406"/><text fill="#000000" font-family="sans-serif" font-size="12" lengthAdjust="spacing" textLength="114.0703" x="116.5283" y="637.0977">Sound.Init(cfg.sound)</text><rect fill="#FFFFFF" height="35.0938" rx="12.5" ry="12.5" style="stroke:#444444;stroke-width:0.5;" width="92.6855" x="127.2207" y="669.7344"/><text fill="#000000" font-family="sans-serif" font-size="12" lengthAdjust="spacing" textLength="72.6855" x="137.2207" y="692.1914">Collision.Init()</text><rect fill="#FFFFFF" height="35.0938" rx="12.5" ry="12.5" style="stroke:#444444;stroke-width:0.5;" width="148.0332" x="99.5469" y="724.8281"/><text fill="#000000" font-family="sans-serif" font-size="12" lengthAdjust="spacing" textLength="128.0332" x="109.5469" y="747.2852">Physics.Init(cfg.physics)</text><rect fill="#FFFFFF" height="35.0938" rx="12.5" ry="12.5" style="stroke:#444444;stroke-width:0.5;" width="114.6934" x="116.2168" y="779.9219"/><text fill="#000000" font-family="sans-serif" font-size="12" lengthAdjust="spacing" textLength="94.6934" x="126.2168" y="802.3789">UI.Init(cfg.uiStyle)</text><rect fill="#FFFFFF" height="35.0938" rx="12.5" ry="12.5" style="stroke:#444444;stroke-width:0.5;" width="87.3594" x="129.8838" y="835.0156"/><text fill="#000000" font-family="sans-serif" font-size="12" lengthAdjust="spacing" textLength="67.3594" x="139.8838" y="857.4727">Scenes.Init()</text><path d="M283.2803,880.1094 L283.2803,930.1641 L263.2803,934.1641 L283.2803,938.1641 L283.2803,988.2188 A0,0 0 0 0 283.2803,988.2188 L630.1436,988.2188 A0,0 0 0 0 630.1436,988.2188 L630.1436,890.1094 L620.1436,880.1094 L283.2803,880.1094 A0,0 0 0 0 283.2803,880.1094" fill="#FEFFDD" style="stroke:#181818;stroke-width:0.5;"/><path d="M620.1436,880.1094 L620.1436,890.1094 L630.1436,890.1094 L620.1436,880.1094" fill="#FEFFDD" style="stroke:#181818;stroke-width:0.5;"/><text fill="#000000" font-family="sans-serif" font-size="13" lengthAdjust="spacing" textLength="129.3589" x="289.2803" y="898.6045">ApplyPendingScene():</text><text fill="#000000" font-family="sans-serif" font-size="13" lengthAdjust="spacing" textLength="325.8633" x="289.2803" y="914.9561">- OnDisable/OnDestroy escena previa (si no persistente)</text><text fill="#000000" font-family="sans-serif" font-size="13" lengthAdjust="spacing" textLength="248.168" x="289.2803" y="931.3076">- Collision.ClearAll() + Physics.bodies.clear</text><text fill="#000000" font-family="sans-serif" font-size="13" lengthAdjust="spacing" textLength="249.2788" x="289.2803" y="947.6592">- Construye nueva escena (builder/registry)</text><text fill="#000000" font-family="sans-serif" font-size="13" lengthAdjust="spacing" textLength="88.8672" x="289.2803" y="964.0107">- OnEnableAll()</text><text fill="#000000" font-family="sans-serif" font-size="13" lengthAdjust="spacing" textLength="212.8496" x="289.2803" y="980.3623">- AwakeAll()/StartAll() (solo si 1&#170; vez)</text><rect fill="#FFFFFF" height="50.1875" rx="12.5" ry="12.5" style="stroke:#444444;stroke-width:0.5;" width="179.4336" x="83.8467" y="909.0703"/><text fill="#000000" font-family="sans-serif" font-size="12" lengthAdjust="spacing" textLength="113.3906" x="93.8467" y="931.5273">ApplyStartingScene()</text><text fill="#000000" font-family="sans-serif" font-size="12" lengthAdjust="spacing" textLength="159.4336" x="93.8467" y="946.6211">(Scenes.ApplyPendingScene)</text><rect fill="#FFFFFF" height="65.2813" rx="12.5" ry="12.5" style="stroke:#444444;stroke-width:0.5;" width="158.7324" x="94.1973" y="1052.2188"/><text fill="#000000" font-family="sans-serif" font-size="12" lengthAdjust="spacing" textLength="71.332" x="104.1973" y="1074.6758">FrameTick_()</text><text fill="#000000" font-family="sans-serif" font-size="12" lengthAdjust="spacing" textLength="59.9883" x="104.1973" y="1089.7695">Time.Tick()</text><text fill="#000000" font-family="sans-serif" font-size="12" lengthAdjust="spacing" textLength="138.7324" x="104.1973" y="1104.8633">accumulator += deltaTime</text><rect fill="#FFFFFF" height="65.2813" rx="12.5" ry="12.5" style="stroke:#444444;stroke-width:0.5;" width="96.7109" x="125.208" y="1137.5"/><text fill="#000000" font-family="sans-serif" font-size="12" lengthAdjust="spacing" textLength="61.3652" x="135.208" y="1159.957">PollInput_()</text><text fill="#000000" font-family="sans-serif" font-size="12" lengthAdjust="spacing" textLength="76.7109" x="135.208" y="1175.0508">Input.Update()</text><text fill="#000000" font-family="sans-serif" font-size="12" lengthAdjust="spacing" textLength="62.0098" x="135.208" y="1190.1445">(UI.Begin())</text><rect fill="none" height="383.9971" style="stroke:#000000;stroke-width:1.5;" width="271.7617" x="36.1826" y="1212.7813"/><path d="M137.2168,1212.7813 L137.2168,1223.3906 L127.2168,1233.3906 L36.1826,1233.3906" fill="none" style="stroke:#000000;stroke-width:1.5;"/><text fill="#000000" font-family="sans-serif" font-size="14" lengthAdjust="spacing" textLength="91.0342" x="39.1826" y="1228.3145">Fixed timestep</text><rect fill="#FFFFFF" height="35.0938" rx="12.5" ry="12.5" style="stroke:#444444;stroke-width:0.5;" width="206.7617" x="70.1826" y="1307.3096"/><text fill="#000000" font-family="sans-serif" font-size="12" lengthAdjust="spacing" textLength="186.7617" x="80.1826" y="1329.7666">OnFixedUpdate callback (opcional)</text><rect fill="#FFFFFF" height="35.0938" rx="12.5" ry="12.5" style="stroke:#444444;stroke-width:0.5;" width="176.7383" x="85.1943" y="1362.4033"/><text fill="#000000" font-family="sans-serif" font-size="12" lengthAdjust="spacing" textLength="156.7383" x="95.1943" y="1384.8604">Scenes.FixedUpdate(fixedDt)</text><rect fill="#FFFFFF" height="35.0938" rx="12.5" ry="12.5" style="stroke:#444444;stroke-width:0.5;" width="134.7031" x="106.2119" y="1417.4971"/><text fill="#000000" font-family="sans-serif" font-size="12" lengthAdjust="spacing" textLength="114.7031" x="116.2119" y="1439.9541">Physics.Step(fixedDt)</text><rect fill="#FFFFFF" height="35.0938" rx="12.5" ry="12.5" style="stroke:#444444;stroke-width:0.5;" width="179.3984" x="83.8643" y="1472.5908"/><text fill="#000000" font-family="sans-serif" font-size="12" lengthAdjust="spacing" textLength="159.3984" x="93.8643" y="1495.0479">Collision.DetectAndDispatch()</text><rect fill="#FFFFFF" height="35.0938" rx="12.5" ry="12.5" style="stroke:#444444;stroke-width:0.5;" width="140.3809" x="103.373" y="1527.6846"/><text fill="#000000" font-family="sans-serif" font-size="12" lengthAdjust="spacing" textLength="120.3809" x="113.373" y="1550.1416">accumulator -= fixedDt</text><polygon fill="#FFFFFF" points="117.0085,1250.3906,230.1184,1250.3906,242.1184,1262.3906,230.1184,1274.3906,117.0085,1274.3906,105.0085,1262.3906,117.0085,1250.3906" style="stroke:#444444;stroke-width:0.5;"/><text fill="#000000" font-family="sans-serif" font-size="11" lengthAdjust="spacing" textLength="12.8477" x="177.5635" y="1285.8096">&gt;=</text><text fill="#000000" font-family="sans-serif" font-size="11" lengthAdjust="spacing" textLength="113.1099" x="117.0085" y="1266.8916">accumulator &gt;= fixedDt</text><text fill="#000000" font-family="sans-serif" font-size="11" lengthAdjust="spacing" textLength="6.4238" x="98.5847" y="1259.9736">&lt;</text><rect fill="#FFFFFF" height="65.2813" rx="12.5" ry="12.5" style="stroke:#444444;stroke-width:0.5;" width="177.418" x="84.8545" y="1616.7783"/><text fill="#000000" font-family="sans-serif" font-size="12" lengthAdjust="spacing" textLength="68.7012" x="94.8545" y="1639.2354">DoUpdate_()</text><text fill="#000000" font-family="sans-serif" font-size="12" lengthAdjust="spacing" textLength="157.418" x="94.8545" y="1654.3291">OnUpdate callback (opcional)</text><text fill="#000000" font-family="sans-serif" font-size="12" lengthAdjust="spacing" textLength="100.0547" x="94.8545" y="1669.4229">Scenes.Update(dt)</text><rect fill="none" height="483.1836" style="stroke:#000000;stroke-width:1.5;" width="230.0957" x="58.5156" y="1702.9189"/><path d="M114.4326,1702.9189 L114.4326,1713.5283 L104.4326,1723.5283 L58.5156,1723.5283" fill="none" style="stroke:#000000;stroke-width:1.5;"/><text fill="#000000" font-family="sans-serif" font-size="14" lengthAdjust="spacing" textLength="45.917" x="61.5156" y="1718.4521">Render</text><rect fill="#FFFFFF" height="35.0938" rx="12.5" ry="12.5" style="stroke:#444444;stroke-width:0.5;" width="210.0957" x="68.5156" y="1740.5283"/><text fill="#000000" font-family="sans-serif" font-size="12" lengthAdjust="spacing" textLength="190.0957" x="78.5156" y="1762.9854">Render.Begin(activeScene.camera)</text><rect fill="#FFFFFF" height="35.0938" rx="12.5" ry="12.5" style="stroke:#444444;stroke-width:0.5;" width="110.709" x="118.209" y="1795.6221"/><text fill="#000000" font-family="sans-serif" font-size="12" lengthAdjust="spacing" textLength="90.709" x="128.209" y="1818.0791">Scenes.Render()</text><rect fill="#FFFFFF" height="35.0938" rx="12.5" ry="12.5" style="stroke:#444444;stroke-width:0.5;" width="64.6777" x="141.2246" y="1850.7158"/><text fill="#000000" font-family="sans-serif" font-size="12" lengthAdjust="spacing" textLength="44.6777" x="151.2246" y="1873.1729">UI.End()</text><rect fill="#FFFFFF" height="35.0938" rx="12.5" ry="12.5" style="stroke:#444444;stroke-width:0.5;" width="131.3574" x="107.8848" y="1954.7275"/><text fill="#000000" font-family="sans-serif" font-size="12" lengthAdjust="spacing" textLength="111.3574" x="117.8848" y="1977.1846">DrawStatsOverlay_()</text><rect fill="#FFFFFF" height="35.0938" rx="12.5" ry="12.5" style="stroke:#444444;stroke-width:0.5;" width="64.6777" x="141.2246" y="2024.8213"/><text fill="#000000" font-family="sans-serif" font-size="12" lengthAdjust="spacing" textLength="44.6777" x="151.2246" y="2047.2783">UI.End()</text><polygon fill="#FFFFFF" points="139.6316,1905.8096,207.4954,1905.8096,219.4954,1917.8096,207.4954,1929.8096,139.6316,1929.8096,127.6316,1917.8096,139.6316,1905.8096" style="stroke:#444444;stroke-width:0.5;"/><text fill="#000000" font-family="sans-serif" font-size="11" lengthAdjust="spacing" textLength="17.1177" x="177.5635" y="1941.2285">yes</text><text fill="#000000" font-family="sans-serif" font-size="11" lengthAdjust="spacing" textLength="67.8638" x="139.6316" y="1922.3105">stats overlay?</text><polygon fill="#FFFFFF" points="173.5635,2079.915,185.5635,2091.915,173.5635,2103.915,161.5635,2091.915,173.5635,2079.915" style="stroke:#444444;stroke-width:0.5;"/><rect fill="#FFFFFF" height="50.1875" rx="12.5" ry="12.5" style="stroke:#444444;stroke-width:0.5;" width="115.3613" x="115.8828" y="2123.915"/><text fill="#000000" font-family="sans-serif" font-size="12" lengthAdjust="spacing" textLength="72.0352" x="125.8828" y="2146.3721">Render.End()</text><text fill="#000000" font-family="sans-serif" font-size="12" lengthAdjust="spacing" textLength="95.3613" x="125.8828" y="2161.4658">(Window.Present)</text><rect fill="#FFFFFF" height="50.1875" rx="12.5" ry="12.5" style="stroke:#444444;stroke-width:0.5;" width="325.127" x="11" y="2206.1025"/><text fill="#000000" font-family="sans-serif" font-size="12" lengthAdjust="spacing" textLength="134.0859" x="21" y="2228.5596">ManageSceneQueues_()</text><text fill="#000000" font-family="sans-serif" font-size="12" lengthAdjust="spacing" textLength="305.127" x="21" y="2243.6533">(activeScene.FlushDestroyQueue + ProcessNewObjects)</text><rect fill="#FFFFFF" height="50.1875" rx="12.5" ry="12.5" style="stroke:#444444;stroke-width:0.5;" width="179.4336" x="83.8467" y="2276.29"/><text fill="#000000" font-family="sans-serif" font-size="12" lengthAdjust="spacing" textLength="140.0918" x="93.8467" y="2298.7471">ManageSceneChanges_()</text><text fill="#000000" font-family="sans-serif" font-size="12" lengthAdjust="spacing" textLength="159.4336" x="93.8467" y="2313.8408">(Scenes.ApplyPendingScene)</text><polygon fill="#FFFFFF" points="173.5635,1008.2188,185.5635,1020.2188,173.5635,1032.2188,161.5635,1020.2188,173.5635,1008.2188" style="stroke:#444444;stroke-width:0.5;"/><polygon fill="#FFFFFF" points="124.9524,2346.4775,222.1746,2346.4775,234.1746,2358.4775,222.1746,2370.4775,124.9524,2370.4775,112.9524,2358.4775,124.9524,2346.4775" style="stroke:#444444;stroke-width:0.5;"/><text fill="#000000" font-family="sans-serif" font-size="11" lengthAdjust="spacing" textLength="97.2222" x="124.9524" y="2362.9785">Engine::IsRunning()</text><rect fill="#FFFFFF" height="35.0938" rx="12.5" ry="12.5" style="stroke:#444444;stroke-width:0.5;" width="75.3477" x="135.8896" y="2390.4775"/><text fill="#000000" font-family="sans-serif" font-size="12" lengthAdjust="spacing" textLength="55.3477" x="145.8896" y="2412.9346">StopImpl()</text><rect fill="#FFFFFF" height="35.0938" rx="12.5" ry="12.5" style="stroke:#444444;stroke-width:0.5;" width="124.7246" x="111.2012" y="2445.5713"/><text fill="#000000" font-family="sans-serif" font-size="12" lengthAdjust="spacing" textLength="104.7246" x="121.2012" y="2468.0283">Scenes.Shutdown()</text><rect fill="#FFFFFF" height="35.0938" rx="12.5" ry="12.5" style="stroke:#444444;stroke-width:0.5;" width="96.6992" x="125.2139" y="2500.665"/><text fill="#000000" font-family="sans-serif" font-size="12" lengthAdjust="spacing" textLength="76.6992" x="135.2139" y="2523.1221">UI.Shutdown()</text><rect fill="#FFFFFF" height="35.0938" rx="12.5" ry="12.5" style="stroke:#444444;stroke-width:0.5;" width="126.043" x="110.542" y="2555.7588"/><text fill="#000000" font-family="sans-serif" font-size="12" lengthAdjust="spacing" textLength="106.043" x="120.542" y="2578.2158">Physics.Shutdown()</text><rect fill="#FFFFFF" height="35.0938" rx="12.5" ry="12.5" style="stroke:#444444;stroke-width:0.5;" width="130.0508" x="108.5381" y="2610.8525"/><text fill="#000000" font-family="sans-serif" font-size="12" lengthAdjust="spacing" textLength="110.0508" x="118.5381" y="2633.3096">Collision.Shutdown()</text><rect fill="#FFFFFF" height="35.0938" rx="12.5" ry="12.5" style="stroke:#444444;stroke-width:0.5;" width="119.3984" x="113.8643" y="2665.9463"/><text fill="#000000" font-family="sans-serif" font-size="12" lengthAdjust="spacing" textLength="99.3984" x="123.8643" y="2688.4033">Sound.Shutdown()</text><rect fill="#FFFFFF" height="35.0938" rx="12.5" ry="12.5" style="stroke:#444444;stroke-width:0.5;" width="120.7109" x="113.208" y="2721.04"/><text fill="#000000" font-family="sans-serif" font-size="12" lengthAdjust="spacing" textLength="100.7109" x="123.208" y="2743.4971">Assets.Shutdown()</text><rect fill="#FFFFFF" height="35.0938" rx="12.5" ry="12.5" style="stroke:#444444;stroke-width:0.5;" width="111.3887" x="117.8691" y="2776.1338"/><text fill="#000000" font-family="sans-serif" font-size="12" lengthAdjust="spacing" textLength="91.3887" x="127.8691" y="2798.5908">Input.Shutdown()</text><rect fill="#FFFFFF" height="35.0938" rx="12.5" ry="12.5" style="stroke:#444444;stroke-width:0.5;" width="124.0566" x="111.5352" y="2831.2275"/><text fill="#000000" font-family="sans-serif" font-size="12" lengthAdjust="spacing" textLength="104.0566" x="121.5352" y="2853.6846">Render.Shutdown()</text><rect fill="#FFFFFF" height="35.0938" rx="12.5" ry="12.5" style="stroke:#444444;stroke-width:0.5;" width="127.3789" x="109.874" y="2886.3213"/><text fill="#000000" font-family="sans-serif" font-size="12" lengthAdjust="spacing" textLength="107.3789" x="119.874" y="2908.7783">Window.Shutdown()</text><rect fill="#FFFFFF" height="35.0938" rx="12.5" ry="12.5" style="stroke:#444444;stroke-width:0.5;" width="290.7559" x="28.1855" y="2941.415"/><text fill="#000000" font-family="sans-serif" font-size="12" lengthAdjust="spacing" textLength="270.7559" x="38.1855" y="2963.8721">Mix_CloseAudio / TTF_Quit / IMG_Quit / SDL_Quit</text><ellipse cx="173.5635" cy="3007.5088" fill="none" rx="11" ry="11" style="stroke:#222222;stroke-width:1;"/><ellipse cx="173.5635" cy="3007.5088" fill="#222222" rx="6" ry="6" style="stroke:#222222;stroke-width:1;"/><line style="stroke:#181818;stroke-width:1;" x1="173.5635" x2="173.5635" y1="68.6094" y2="88.6094"/><polygon fill="#181818" points="169.5635,78.6094,173.5635,88.6094,177.5635,78.6094,173.5635,82.6094" style="stroke:#181818;stroke-width:1;"/><line style="stroke:#181818;stroke-width:1;" x1="173.5635" x2="173.5635" y1="138.7969" y2="158.7969"/><polygon fill="#181818" points="169.5635,148.7969,173.5635,158.7969,177.5635,148.7969,173.5635,152.7969" style="stroke:#181818;stroke-width:1;"/><line style="stroke:#181818;stroke-width:1;" x1="173.5635" x2="173.5635" y1="208.9844" y2="228.9844"/><polygon fill="#181818" points="169.5635,218.9844,173.5635,228.9844,177.5635,218.9844,173.5635,222.9844" style="stroke:#181818;stroke-width:1;"/><line style="stroke:#181818;stroke-width:1;" x1="173.5635" x2="173.5635" y1="264.0781" y2="284.0781"/><polygon fill="#181818" points="169.5635,274.0781,173.5635,284.0781,177.5635,274.0781,173.5635,278.0781" style="stroke:#181818;stroke-width:1;"/><line style="stroke:#181818;stroke-width:1;" x1="173.5635" x2="173.5635" y1="319.1719" y2="339.1719"/><polygon fill="#181818" points="169.5635,329.1719,173.5635,339.1719,177.5635,329.1719,173.5635,333.1719" style="stroke:#181818;stroke-width:1;"/><line style="stroke:#181818;stroke-width:1;" x1="173.5635" x2="173.5635" y1="374.2656" y2="394.2656"/><polygon fill="#181818" points="169.5635,384.2656,173.5635,394.2656,177.5635,384.2656,173.5635,388.2656" style="stroke:#181818;stroke-width:1;"/><line style="stroke:#181818;stroke-width:1;" x1="173.5635" x2="173.5635" y1="429.3594" y2="449.3594"/><polygon fill="#181818" points="169.5635,439.3594,173.5635,449.3594,177.5635,439.3594,173.5635,443.3594" style="stroke:#181818;stroke-width:1;"/><line style="stroke:#181818;stroke-width:1;" x1="173.5635" x2="173.5635" y1="484.4531" y2="504.4531"/><polygon fill="#181818" points="169.5635,494.4531,173.5635,504.4531,177.5635,494.4531,173.5635,498.4531" style="stroke:#181818;stroke-width:1;"/><line style="stroke:#181818;stroke-width:1;" x1="173.5635" x2="173.5635" y1="539.5469" y2="559.5469"/><polygon fill="#181818" points="169.5635,549.5469,173.5635,559.5469,177.5635,549.5469,173.5635,553.5469" style="stroke:#181818;stroke-width:1;"/><line style="stroke:#181818;stroke-width:1;" x1="173.5635" x2="173.5635" y1="594.6406" y2="614.6406"/><polygon fill="#181818" points="169.5635,604.6406,173.5635,614.6406,177.5635,604.6406,173.5635,608.6406" style="stroke:#181818;stroke-width:1;"/><line style="stroke:#181818;stroke-width:1;" x1="173.5635" x2="173.5635" y1="649.7344" y2="669.7344"/><polygon fill="#181818" points="169.5635,659.7344,173.5635,669.7344,177.5635,659.7344,173.5635,663.7344" style="stroke:#181818;stroke-width:1;"/><line style="stroke:#181818;stroke-width:1;" x1="173.5635" x2="173.5635" y1="704.8281" y2="724.8281"/><polygon fill="#181818" points="169.5635,714.8281,173.5635,724.8281,177.5635,714.8281,173.5635,718.8281" style="stroke:#181818;stroke-width:1;"/><line style="stroke:#181818;stroke-width:1;" x1="173.5635" x2="173.5635" y1="759.9219" y2="779.9219"/><polygon fill="#181818" points="169.5635,769.9219,173.5635,779.9219,177.5635,769.9219,173.5635,773.9219" style="stroke:#181818;stroke-width:1;"/><line style="stroke:#181818;stroke-width:1;" x1="173.5635" x2="173.5635" y1="815.0156" y2="835.0156"/><polygon fill="#181818" points="169.5635,825.0156,173.5635,835.0156,177.5635,825.0156,173.5635,829.0156" style="stroke:#181818;stroke-width:1;"/><line style="stroke:#181818;stroke-width:1;" x1="173.5635" x2="173.5635" y1="870.1094" y2="909.0703"/><polygon fill="#181818" points="169.5635,899.0703,173.5635,909.0703,177.5635,899.0703,173.5635,903.0703" style="stroke:#181818;stroke-width:1;"/><line style="stroke:#181818;stroke-width:1;" x1="173.5635" x2="173.5635" y1="1117.5" y2="1137.5"/><polygon fill="#181818" points="169.5635,1127.5,173.5635,1137.5,177.5635,1127.5,173.5635,1131.5" style="stroke:#181818;stroke-width:1;"/><line style="stroke:#181818;stroke-width:1;" x1="173.5635" x2="173.5635" y1="1342.4033" y2="1362.4033"/><polygon fill="#181818" points="169.5635,1352.4033,173.5635,1362.4033,177.5635,1352.4033,173.5635,1356.4033" style="stroke:#181818;stroke-width:1;"/><line style="stroke:#181818;stroke-width:1;" x1="173.5635" x2="173.5635" y1="1397.4971" y2="1417.4971"/><polygon fill="#181818" points="169.5635,1407.4971,173.5635,1417.4971,177.5635,1407.4971,173.5635,1411.4971" style="stroke:#181818;stroke-width:1;"/><line style="stroke:#181818;stroke-width:1;" x1="173.5635" x2="173.5635" y1="1452.5908" y2="1472.5908"/><polygon fill="#181818" points="169.5635,1462.5908,173.5635,1472.5908,177.5635,1462.5908,173.5635,1466.5908" style="stroke:#181818;stroke-width:1;"/><line style="stroke:#181818;stroke-width:1;" x1="173.5635" x2="173.5635" y1="1507.6846" y2="1527.6846"/><polygon fill="#181818" points="169.5635,1517.6846,173.5635,1527.6846,177.5635,1517.6846,173.5635,1521.6846" style="stroke:#181818;stroke-width:1;"/><line style="stroke:#181818;stroke-width:1;" x1="173.5635" x2="173.5635" y1="1274.3906" y2="1307.3096"/><polygon fill="#181818" points="169.5635,1297.3096,173.5635,1307.3096,177.5635,1297.3096,173.5635,1301.3096" style="stroke:#181818;stroke-width:1;"/><line style="stroke:#181818;stroke-width:1;" x1="173.5635" x2="173.5635" y1="1562.7783" y2="1572.7783"/><line style="stroke:#181818;stroke-width:1;" x1="173.5635" x2="288.9443" y1="1572.7783" y2="1572.7783"/><polygon fill="#181818" points="284.9443,1426.126,288.9443,1416.126,292.9443,1426.126,288.9443,1422.126" style="stroke:#181818;stroke-width:1;"/><line style="stroke:#181818;stroke-width:1;" x1="288.9443" x2="288.9443" y1="1262.3906" y2="1572.7783"/><line style="stroke:#181818;stroke-width:1;" x1="288.9443" x2="242.1184" y1="1262.3906" y2="1262.3906"/><polygon fill="#181818" points="252.1184,1258.3906,242.1184,1262.3906,252.1184,1266.3906,248.1184,1262.3906" style="stroke:#181818;stroke-width:1;"/><line style="stroke:#181818;stroke-width:1;" x1="105.0085" x2="58.1826" y1="1262.3906" y2="1262.3906"/><polygon fill="#181818" points="54.1826,1412.126,58.1826,1422.126,62.1826,1412.126,58.1826,1416.126" style="stroke:#181818;stroke-width:1;"/><line style="stroke:#181818;stroke-width:1;" x1="58.1826" x2="58.1826" y1="1262.3906" y2="1584.7783"/><line style="stroke:#181818;stroke-width:1;" x1="58.1826" x2="173.5635" y1="1584.7783" y2="1584.7783"/><line style="stroke:#181818;stroke-width:1;" x1="173.5635" x2="173.5635" y1="1584.7783" y2="1616.7783"/><polygon fill="#181818" points="169.5635,1606.7783,173.5635,1616.7783,177.5635,1606.7783,173.5635,1610.7783" style="stroke:#181818;stroke-width:1;"/><line style="stroke:#181818;stroke-width:1;" x1="173.5635" x2="173.5635" y1="1202.7813" y2="1250.3906"/><polygon fill="#181818" points="169.5635,1240.3906,173.5635,1250.3906,177.5635,1240.3906,173.5635,1244.3906" style="stroke:#181818;stroke-width:1;"/><line style="stroke:#181818;stroke-width:1;" x1="173.5635" x2="173.5635" y1="1775.6221" y2="1795.6221"/><polygon fill="#181818" points="169.5635,1785.6221,173.5635,1795.6221,177.5635,1785.6221,173.5635,1789.6221" style="stroke:#181818;stroke-width:1;"/><line style="stroke:#181818;stroke-width:1;" x1="173.5635" x2="173.5635" y1="1830.7158" y2="1850.7158"/><polygon fill="#181818" points="169.5635,1840.7158,173.5635,1850.7158,177.5635,1840.7158,173.5635,1844.7158" style="stroke:#181818;stroke-width:1;"/><line style="stroke:#181818;stroke-width:1;" x1="173.5635" x2="173.5635" y1="1989.8213" y2="2024.8213"/><polygon fill="#181818" points="169.5635,2014.8213,173.5635,2024.8213,177.5635,2014.8213,173.5635,2018.8213" style="stroke:#181818;stroke-width:1;"/><line style="stroke:#181818;stroke-width:1;" x1="173.5635" x2="173.5635" y1="1929.8096" y2="1954.7275"/><polygon fill="#181818" points="169.5635,1944.7275,173.5635,1954.7275,177.5635,1944.7275,173.5635,1948.7275" style="stroke:#181818;stroke-width:1;"/><line style="stroke:#181818;stroke-width:1;" x1="219.4954" x2="249.2422" y1="1917.8096" y2="1917.8096"/><polygon fill="#181818" points="245.2422,1997.3213,249.2422,2007.3213,253.2422,1997.3213,249.2422,2001.3213" style="stroke:#181818;stroke-width:1;"/><line style="stroke:#181818;stroke-width:1;" x1="249.2422" x2="249.2422" y1="1917.8096" y2="2091.915"/><line style="stroke:#181818;stroke-width:1;" x1="249.2422" x2="185.5635" y1="2091.915" y2="2091.915"/><polygon fill="#181818" points="195.5635,2087.915,185.5635,2091.915,195.5635,2095.915,191.5635,2091.915" style="stroke:#181818;stroke-width:1;"/><line style="stroke:#181818;stroke-width:1;" x1="173.5635" x2="173.5635" y1="2059.915" y2="2079.915"/><polygon fill="#181818" points="169.5635,2069.915,173.5635,2079.915,177.5635,2069.915,173.5635,2073.915" style="stroke:#181818;stroke-width:1;"/><line style="stroke:#181818;stroke-width:1;" x1="173.5635" x2="173.5635" y1="1885.8096" y2="1905.8096"/><polygon fill="#181818" points="169.5635,1895.8096,173.5635,1905.8096,177.5635,1895.8096,173.5635,1899.8096" style="stroke:#181818;stroke-width:1;"/><line style="stroke:#181818;stroke-width:1;" x1="173.5635" x2="173.5635" y1="2103.915" y2="2123.915"/><polygon fill="#181818" points="169.5635,2113.915,173.5635,2123.915,177.5635,2113.915,173.5635,2117.915" style="stroke:#181818;stroke-width:1;"/><line style="stroke:#181818;stroke-width:1;" x1="173.5635" x2="173.5635" y1="1682.0596" y2="1740.5283"/><polygon fill="#181818" points="169.5635,1730.5283,173.5635,1740.5283,177.5635,1730.5283,173.5635,1734.5283" style="stroke:#181818;stroke-width:1;"/><line style="stroke:#181818;stroke-width:1;" x1="173.5635" x2="173.5635" y1="2174.1025" y2="2206.1025"/><polygon fill="#181818" points="169.5635,2196.1025,173.5635,2206.1025,177.5635,2196.1025,173.5635,2200.1025" style="stroke:#181818;stroke-width:1;"/><line style="stroke:#181818;stroke-width:1;" x1="173.5635" x2="173.5635" y1="2256.29" y2="2276.29"/><polygon fill="#181818" points="169.5635,2266.29,173.5635,2276.29,177.5635,2266.29,173.5635,2270.29" style="stroke:#181818;stroke-width:1;"/><line style="stroke:#181818;stroke-width:1;" x1="173.5635" x2="173.5635" y1="1032.2188" y2="1052.2188"/><polygon fill="#181818" points="169.5635,1042.2188,173.5635,1052.2188,177.5635,1042.2188,173.5635,1046.2188" style="stroke:#181818;stroke-width:1;"/><line style="stroke:#181818;stroke-width:1;" x1="234.1746" x2="348.127" y1="2358.4775" y2="2358.4775"/><polygon fill="#181818" points="344.127,1692.9189,348.127,1682.9189,352.127,1692.9189,348.127,1688.9189" style="stroke:#181818;stroke-width:1;"/><line style="stroke:#181818;stroke-width:1;" x1="348.127" x2="348.127" y1="1020.2188" y2="2358.4775"/><line style="stroke:#181818;stroke-width:1;" x1="348.127" x2="185.5635" y1="1020.2188" y2="1020.2188"/><polygon fill="#181818" points="195.5635,1016.2188,185.5635,1020.2188,195.5635,1024.2188,191.5635,1020.2188" style="stroke:#181818;stroke-width:1;"/><line style="stroke:#181818;stroke-width:1;" x1="173.5635" x2="173.5635" y1="2326.4775" y2="2346.4775"/><polygon fill="#181818" points="169.5635,2336.4775,173.5635,2346.4775,177.5635,2336.4775,173.5635,2340.4775" style="stroke:#181818;stroke-width:1;"/><line style="stroke:#181818;stroke-width:1;" x1="173.5635" x2="173.5635" y1="959.2578" y2="1008.2188"/><polygon fill="#181818" points="169.5635,998.2188,173.5635,1008.2188,177.5635,998.2188,173.5635,1002.2188" style="stroke:#181818;stroke-width:1;"/><line style="stroke:#181818;stroke-width:1;" x1="173.5635" x2="173.5635" y1="2370.4775" y2="2390.4775"/><polygon fill="#181818" points="169.5635,2380.4775,173.5635,2390.4775,177.5635,2380.4775,173.5635,2384.4775" style="stroke:#181818;stroke-width:1;"/><line style="stroke:#181818;stroke-width:1;" x1="173.5635" x2="173.5635" y1="2425.5713" y2="2445.5713"/><polygon fill="#181818" points="169.5635,2435.5713,173.5635,2445.5713,177.5635,2435.5713,173.5635,2439.5713" style="stroke:#181818;stroke-width:1;"/><line style="stroke:#181818;stroke-width:1;" x1="173.5635" x2="173.5635" y1="2480.665" y2="2500.665"/><polygon fill="#181818" points="169.5635,2490.665,173.5635,2500.665,177.5635,2490.665,173.5635,2494.665" style="stroke:#181818;stroke-width:1;"/><line style="stroke:#181818;stroke-width:1;" x1="173.5635" x2="173.5635" y1="2535.7588" y2="2555.7588"/><polygon fill="#181818" points="169.5635,2545.7588,173.5635,2555.7588,177.5635,2545.7588,173.5635,2549.7588" style="stroke:#181818;stroke-width:1;"/><line style="stroke:#181818;stroke-width:1;" x1="173.5635" x2="173.5635" y1="2590.8525" y2="2610.8525"/><polygon fill="#181818" points="169.5635,2600.8525,173.5635,2610.8525,177.5635,2600.8525,173.5635,2604.8525" style="stroke:#181818;stroke-width:1;"/><line style="stroke:#181818;stroke-width:1;" x1="173.5635" x2="173.5635" y1="2645.9463" y2="2665.9463"/><polygon fill="#181818" points="169.5635,2655.9463,173.5635,2665.9463,177.5635,2655.9463,173.5635,2659.9463" style="stroke:#181818;stroke-width:1;"/><line style="stroke:#181818;stroke-width:1;" x1="173.5635" x2="173.5635" y1="2701.04" y2="2721.04"/><polygon fill="#181818" points="169.5635,2711.04,173.5635,2721.04,177.5635,2711.04,173.5635,2715.04" style="stroke:#181818;stroke-width:1;"/><line style="stroke:#181818;stroke-width:1;" x1="173.5635" x2="173.5635" y1="2756.1338" y2="2776.1338"/><polygon fill="#181818" points="169.5635,2766.1338,173.5635,2776.1338,177.5635,2766.1338,173.5635,2770.1338" style="stroke:#181818;stroke-width:1;"/><line style="stroke:#181818;stroke-width:1;" x1="173.5635" x2="173.5635" y1="2811.2275" y2="2831.2275"/><polygon fill="#181818" points="169.5635,2821.2275,173.5635,2831.2275,177.5635,2821.2275,173.5635,2825.2275" style="stroke:#181818;stroke-width:1;"/><line style="stroke:#181818;stroke-width:1;" x1="173.5635" x2="173.5635" y1="2866.3213" y2="2886.3213"/><polygon fill="#181818" points="169.5635,2876.3213,173.5635,2886.3213,177.5635,2876.3213,173.5635,2880.3213" style="stroke:#181818;stroke-width:1;"/><line style="stroke:#181818;stroke-width:1;" x1="173.5635" x2="173.5635" y1="2921.415" y2="2941.415"/><polygon fill="#181818" points="169.5635,2931.415,173.5635,2941.415,177.5635,2931.415,173.5635,2935.415" style="stroke:#181818;stroke-width:1;"/><line style="stroke:#181818;stroke-width:1;" x1="173.5635" x2="173.5635" y1="2976.5088" y2="2996.5088"/><polygon fill="#181818" points="169.5635,2986.5088,173.5635,2996.5088,177.5635,2986.5088,173.5635,2990.5088" style="stroke:#181818;stroke-width:1;"/><!--SRC=[VLNDRjiu4BxhAGRjXKAHk4MzUt0sBHmxNXX8rcwLOYy50beQIsneKY0fkzf5NsWVOvziXvGOMGYsDyxCn-7CDpzqmac4MrKAXN3FXO8xhMkuW9NKfxpYnW4xQASDyDmrNAP9Of-4ghdX1x0LB_H9g1BsN5eyin1O78LhuUy4u8RdJwNHZIeMMfAdKoKSUhqs1PfEztewdP8gS_HYrEHy_yjRKjx6Yw_tq-dxzxycFoW83qoIsPOR6-EVpHPQxKNvLJ42tsbUTFBAwCDAI4olwCB287UOKT0IdLQMm7tsR-305I_Hs03CbdUFQoKSwTVtlyVZmyCg7k_5zyTDZMhU54Bx6tyAHNHSUZFBz-NbASZaRFOP5MKwM4oGqNZRWpZWODcBxrWiNRZ4wVgXCrd4ugDNhbNTk04klEZrSslHsS70Wtp3BMwvgpmYymKO0DQBNa_KIc65LftDgxPLQqL-vgtk5DxsPJse6v6vDl0wot9KQ9zTK41rBTjGJg8wM5bANFUuODqI2z58TvHs24QKbKjUc5awIovWevR2yft42PtGEgDRG4js3hN1e-30h02beQOY2kjGEKpftf3YGY8tSobPIWMCQUvq8IYctDi2Mf7hfaLG3HvvV87j6Y6fQXE39VasRHeYkbK-eE2IvFc9FtN29EJUFSKijIzGQE_-_GUE-5UQK6hWyqqIWpKr97NvR4M3WmyYVthqJ8Msy98NU9utXqPoFuTlhg50wRW74D5qSKlfXRu85xiE-L8NrEQ1SghO3OMiM9e6VErhueWDUBNotGQEF15PzQimhU3datO2Et_qmpN4pWHXWNsuJWEKNj-euALx478kvOxc7PYkStg3DiPLHFQrFuEpeTrxJAn9Hl6yj0w5NAB3tCrLGHrHSvTNR42T1txn77Xd9kBxz7xp6Vm812vr5qxWRwF-FvMlgi-X3xzmBoZjHZrI6IU_Aq3OYXXSNEPKRCFxe2Cr7JgcucUDTbyKnPuQoN5dGH_HIDv-JC5Lg82rQ9_BiJJyb7dKfWCzdX4pzkV7Qp-ACXYfO_f5jZLeQOG2l2FgFYp84Eod1XkqWR5HNYlPsAeVpe3nWsPqZjR-WQVDxXkLpGQNvzuM5LTbTFUJ7T6FIspHkFVNzdEZ5E6en_tgThfU7sh9pZPJLZMEabAiNs8Z-RdhpfL3iutKtHuTgVhbEz9rOpXIzIoFT3tL8vt_M1PIMmm_2qp2f_EfeKzd4hwY_kW_A7-yyh-Xhly3]--></g></svg>